<?xml version="1.0" encoding="utf-8"?>
<!-- Generator: Adobe Illustrator 19.1.0, SVG Export Plug-In . SVG Version: 6.00 Build 0)  -->
<svg version="1.1" xmlns="http://www.w3.org/2000/svg" xmlns:xlink="http://www.w3.org/1999/xlink" x="0px" y="0px" width="326px"
	 height="383.1px" viewBox="0 0 326 383.1" style="enable-background:new 0 0 326 383.1;" xml:space="preserve">
<style type="text/css">
	.st0{display:none;}
	.st1{fill:#B6CBCB;stroke:#2F4156;stroke-width:2;stroke-miterlimit:10;}
	.st2{fill:#F8DBBD;stroke:#967960;stroke-miterlimit:10;}
	.st3{fill:#FFFFFF;stroke:#7482A5;stroke-miterlimit:10;}
	.st4{fill:#F8DBBD;stroke:#967960;stroke-width:2;stroke-miterlimit:10;}
	.st5{fill:#967960;}
	.st6{opacity:0.54;fill:#FFFFFF;}
	.st7{fill:#33271F;}
	.st8{opacity:0.57;fill:#522911;}
	.st9{fill:#EE2725;stroke:#972727;stroke-miterlimit:10;}
	.st10{fill:#BEC3C6;stroke:#9AA5AF;stroke-miterlimit:10;}
	.st11{fill:#7482A5;}
</style>
<g id="Layer_1" class="st0">
</g>
<g id="Layer_2">
	<circle class="st1" cx="163" cy="163" r="162"/>
	<path class="st2" d="M142.7,221.5c0,0,3.5,17.2-4,25c0,0,23,27,43,4c0,0-4.5-22.2-3.2-31C178.5,219.5,155.7,211.2,142.7,221.5z"/>
	<path class="st3" d="M184.5,239c0,0,23.8-2.2,34.8,10c0,0,9,4.8,9.2,60.5c0,0-77,36.2-121.5-3c0,0-18.2-85,31.5-68.8
		C138.5,237.7,171.5,234.5,184.5,239z"/>
	<path class="st4" d="M232.2,121.2c0,0,19.8-5.8,19.5,19.2s-25.5,41.2-27.8,34S232.2,121.2,232.2,121.2z"/>
	<path class="st5" d="M233.5,129.8c0,0,8.8-3.8,13,2.8C246.5,132.7,241.5,120.8,233.5,129.8z"/>
	<path class="st4" d="M92.3,115.7c0,0-19.7-7.2-20,13.5c0,0,3.2,47.2,33.7,43C106,172.2,94.3,115.5,92.3,115.7z"/>
	<path class="st4" d="M119.3,53c0,0-34.7,12.3-20.3,97.7c0,0,9.3,69.7,60.7,75c0,0,50.1-0.4,64.8-52.4c0,0,17.5-69,0.2-102.2
		C224.7,71,201.7,25,119.3,53z"/>
	<path class="st5" d="M78,124.8c0,0,7.7-9.5,15,0.5C93,125.3,86.5,119.7,78,124.8z"/>
	<path d="M228.5,142.2c0,0-3.2-34.2-1.8-38.6c0,0-6.7-19.3-5.7-21.7c0,0-1.7,2-3.7,4.3c0,0-3.7-7.2-2-15.2c0,0-34.7-31.7-106.7-2
		l-4,12.2L101,81c0,0-5.3,22.7-4.3,25.3c0,0,3.3,26,2.7,38c0,0-10.3-20.8-10.7-28.8l-3.8-1.9l-1.2-8.6l-3.3,2.3c0,0-1.3-17.3,1-27
		l-4,4.7c0,0-2.3-29.5,8.1-34.9c0,0-1.7,0.2-4.7-5.5c0,0,6.3-1,8.7-4.3c0,0-3-9.7-2.7-18.7c0,0,4.7,5.3,7.3,8.7
		c0,0-4.7-19.3-0.3-28.7c0,0,15.7,17,23,17.3c0,0-5-4.3-3.7-9.3c0,0,7.3,3.7,20.3,3C146.3,12,197,0.7,235,43l-5-0.3
		c0,0,19.3,18.3,18.3,45.3l-5-5.3c0,0,3,26.2-2,37.6l-5.7,1.1C235.7,121.3,232.8,138.9,228.5,142.2z"/>
	<path class="st6" d="M112.1,132.9c0,0,2.6-11.5,12.6-10.9s9.6,4.1,10.3,6.4s0.4,16.1-9.8,16.1S114.5,141.4,112.1,132.9z"/>
	<path class="st6" d="M209.9,134.1c0,0-2.6-11.5-12.6-10.9s-9.6,4.1-10.2,6.4s-0.4,16.1,9.8,16.1S207.6,142.6,209.9,134.1z"/>
	<path class="st7" d="M129.7,132.5c-2,0-3.6-1.5-3.6-3.2c0-1.8,1.6-3.2,3.6-3.2c0.4,0,0.7,0.1,1,0.2c-1.5-2.2-3.6-3.7-6-3.7
		c-4.4,0-7.9,4.6-7.9,10.3c0,5.7,3.5,10.3,7.9,10.3c4.4,0,7.9-4.6,7.9-10.3c0-0.5,0-1.1-0.1-1.6C131.9,132,130.9,132.5,129.7,132.5z
		"/>
	<path class="st7" d="M202.4,134.2c-2,0-3.6-1.5-3.6-3.2c0-1.8,1.6-3.3,3.6-3.3c0.4,0,0.7,0.1,1,0.2c-1.5-2.2-3.6-3.7-6-3.7
		c-4.4,0-7.9,4.6-7.9,10.3c0,5.7,3.5,10.3,7.9,10.3c4.4,0,7.9-4.6,7.9-10.3c0-0.5,0-1.1-0.1-1.6
		C204.6,133.7,203.6,134.2,202.4,134.2z"/>
	<path d="M136,128.2c0,0-1.8-5.7-11.8-5.5c-10,0.2-12,11-12,11s-0.5-0.3-0.7-2.5c-0.2-2.2,3.7-11,13.3-10.3
		C134.5,121.5,136,128.2,136,128.2z"/>
	<path d="M186.1,129.5c0,0,2-5.6,12-5.2c10,0.4,11.7,11.3,11.7,11.3s0.5-0.3,0.7-2.5c0.2-2.2-3.4-11.1-13.1-10.7
		C187.8,122.9,186.1,129.5,186.1,129.5z"/>
	<path d="M105.8,112.8c0,0,8.8-4.7,14.5-5.2c5.7-0.5,17,4.2,20,1C143.3,105.5,118.2,95.3,105.8,112.8z"/>
	<path d="M217.8,112.2c0,0-6.8-4.7-15-3.3c-8.2,1.3-17,4.5-19.8,2.8C180.2,110,202.8,95,217.8,112.2z"/>
	<path class="st5" d="M154.5,132c0,0,1.3,24.3-0.3,31.8c0,0-2.5,3.2-3.8,5.8c-1.3,2.7,3.3,7,4.3,7.3s-4.3-5.5-3.2-6.7
		c1.2-1.2,4-6,4-6S158,155.5,154.5,132z"/>
	<path class="st5" d="M163.3,176.3c0,0,3.7-2.2,5.5-1.8l0.5,2.2C169.3,176.7,165,175.2,163.3,176.3z"/>
	<path class="st5" d="M140.7,197.2c0,0-5.3-1.4-5.3-2.5c0-1.1,3.9-0.5,5.7,1.4c1.8,2,23.3,8.7,38.7,0.4c0,0,3.9-2.5,5-0.9
		c1.1,1.6-4.8,2-4.8,2S164.1,208.5,140.7,197.2z"/>
	<path class="st5" d="M164,206.8c0,0-2.8,1.8-7.2,0C156.8,206.8,161,210.8,164,206.8z"/>
	<path class="st8" d="M98.3,39.5c0,0-0.4,19,11.5,25.6C109.9,65.1,94.1,59.3,98.3,39.5z"/>
	<path class="st8" d="M104.1,29.1c0,0-4.7,17.7,12.2,29.4C116.3,58.5,103.1,46,104.1,29.1z"/>
	<path class="st8" d="M111.7,38.9c0,0,8.7,13.6,16.7,15.5C128.4,54.4,116.3,53.8,111.7,38.9z"/>
	<path class="st5" d="M101.3,162.2c0,0-15.5,3.7-17-11.8C84.5,152.3,87.8,161.8,101.3,162.2z"/>
	<path class="st5" d="M234.2,135.8c0,0,12.8,1.2-2.7,19C231.5,154.8,243,139.7,234.2,135.8z"/>
	<path class="st5" d="M90.3,130.7c0,0-12.5,4,7.2,20.3C97.5,151,82.8,135.5,90.3,130.7z"/>
	<path class="st5" d="M226.5,166.7c0,0,7.7,0.8,15.8-11.5C242.3,155.2,237.3,169.5,226.5,166.7z"/>
	<polyline class="st9" points="166.2,245.7 184,344.7 165,376.5 142.7,345 157.5,244 	"/>
	<path class="st9" d="M172,235.8c0,0-7.5-5-19.8-0.3c0,0-2.7,6.8,4.5,12.8c0,0,7.3,1.5,9.7-0.3C166.3,248,174.2,241.7,172,235.8z"/>
	<path class="st3" d="M169.2,233.6c0,0,4.9,2.2,9.4,23.9c0,0,4.8-14,6.2-20.1l-3.1-5.1C181.7,232.2,169.9,230.5,169.2,233.6z"/>
	<path class="st2" d="M173.2,234.8c0,0-2.3,1-2.7,4.7c0,0,0.8,27-14.5,15.8c0,0,0.5-12-3.3-12.7c0,0-4-0.7-3.8,5.2
		c0.2,7.7-4.2,16.2-4.2,16.2s-9,22.8,13.2,24.5c0,0,21.5-1.8,19-13.2c0,0,3.5-4.5,0.3-8.7c0,0,2-7-2.5-7.7
		C174.7,259,182.5,234,173.2,234.8z"/>
	<path class="st3" d="M154.1,234c0,0-4.9,2.2-9.4,23.9c0,0-4.8-14-6.2-20.1l3.1-5.1C141.6,232.6,153.5,230.9,154.1,234z"/>
	<path class="st3" d="M118.5,276.7c3.6-3.6-32.2,44-30.2,48.1c0,0-10.1,20.1-21.1,16.6s10.5-61.8,37.2-85.3"/>
	<path class="st2" d="M142.8,274.5c0,0-5.2,7-13,12.3c0,0,0.8,19.7,13,19.8c0,0,3-13.2,17.8-18.7"/>
	<path class="st3" d="M122.5,236.2c0,0-9.2,0.2-20.6,12.3c-11.1,11.8-30.1,39.8-38.1,73.1c0,0.2-0.1,0.3-0.1,0.5
		c-7.3,63.7,74,6.7,83-18.3c0,0,2.2-20.8-17.3-22c0,0-31.7,32-42,37.3"/>
	<path class="st10" d="M142,274.3c0,0,9.5,4.7,15.9,15.7c0,0-1.7,4-6.2,3.8c0,0-4.7-7.9-13.7-15.6C138,278.3,138.8,274.5,142,274.3z
		"/>
	<circle class="st10" cx="148.8" cy="283.5" r="5"/>
	<path class="st11" d="M206,317.7l-0.7-30.7c0,0,6,0.2,6.8-3.3c0,0-4.3,2.8-7.2,2c0,0,1.7-2,0.5-3.5
		C205.5,282.2,199.2,270.7,206,317.7z"/>
	<path class="st11" d="M105.8,294.3c0,0,10.8-20.7,15.8-21.5C121.7,272.8,113.5,286.2,105.8,294.3z"/>
	<path class="st3" d="M139,315.7c0,0-3.4-14.9-16.5-24.5"/>
	<circle cx="128.2" cy="288.5" r="2.2"/>
</g>
</svg>
